<svg width="103" height="34" viewBox="0 0 103 34" fill="none" xmlns="http://www.w3.org/2000/svg">
<rect x="0.25" y="0.25" width="102.5" height="33.5" rx="16.75" fill="white"/>
<rect x="0.25" y="0.25" width="102.5" height="33.5" rx="16.75" stroke="#ACACAC" stroke-width="0.5"/>
<path d="M23.46 12.124H24.444V22.912H23.46V12.124ZM18.768 12.952C20.364 12.952 21.504 14.416 21.504 16.708C21.504 19 20.364 20.464 18.768 20.464C17.172 20.464 16.032 19 16.032 16.708C16.032 14.416 17.172 12.952 18.768 12.952ZM18.768 13.84C17.712 13.84 16.968 14.968 16.968 16.708C16.968 18.46 17.712 19.588 18.768 19.588C19.812 19.588 20.556 18.46 20.556 16.708C20.556 14.968 19.812 13.84 18.768 13.84ZM32.5071 15.1H34.6671V12.136H35.6631V20.02H34.6671V15.904H32.5071V15.1ZM33.1431 17.632L32.6511 18.4C31.4511 17.968 30.5271 17.068 30.0591 15.964C29.5911 17.188 28.6071 18.184 27.3471 18.64L26.8311 17.872C28.4271 17.296 29.5431 15.868 29.5431 14.344V13.804H27.1431V13H32.8911V13.804H30.5271V14.332C30.5271 15.736 31.5831 17.08 33.1431 17.632ZM29.7711 21.844H35.9631V22.648H28.7751V19.324H29.7711V21.844ZM42.1137 14.236V19.42C43.5537 19.408 44.5737 19.348 45.7497 19.096L45.8337 19.912C44.5497 20.188 43.4577 20.236 41.8497 20.236H41.1417V13.432H45.1497V14.236H42.1137ZM48.9537 12.124H49.9017V22.888H48.9537V17.248H47.4297V22.348H46.5057V12.364H47.4297V16.444H48.9537V12.124ZM58.4088 13.432V14.212H51.9768V13.432H54.7128V12.136H55.6968V13.432H58.4088ZM53.5968 16.84C53.5968 17.584 54.2448 18.064 55.2048 18.064C56.1648 18.064 56.8128 17.584 56.8128 16.84C56.8128 16.096 56.1648 15.604 55.2048 15.604C54.2448 15.604 53.5968 16.096 53.5968 16.84ZM55.6968 18.808V19.948C56.6688 19.9 57.6648 19.828 58.5888 19.684L58.6488 20.416C56.3448 20.824 53.8128 20.848 51.9288 20.848L51.7968 20.02C52.6608 20.02 53.6688 20.02 54.7128 19.984V18.808C53.4768 18.652 52.6608 17.908 52.6608 16.84C52.6608 15.628 53.7048 14.848 55.2048 14.848C56.7048 14.848 57.7488 15.628 57.7488 16.84C57.7488 17.908 56.9328 18.652 55.6968 18.808ZM61.8888 16.696V17.524H60.2088V22.888H59.2248V12.124H60.2088V16.696H61.8888ZM68.0034 15.616V17.596H73.4994V15.616H68.0034ZM71.2434 20.704H75.6354V21.508H65.8794V20.704H70.2474V18.388H67.0314V12.892H68.0034V14.812H73.4994V12.892H74.4594V18.388H71.2434V20.704ZM77.6745 13.288H82.7145C82.7145 16.396 81.2865 19.132 77.7105 20.884L77.1825 20.08C80.0745 18.7 81.5145 16.636 81.7185 14.08H77.6745V13.288ZM84.8865 12.124H85.8705V22.888H84.8865V12.124Z" fill="#ACACAC"/>
</svg>
