<svg width="12" height="14" viewBox="0 0 12 14" fill="none" xmlns="http://www.w3.org/2000/svg">
<path d="M7.04864 0.119803C6.9814 0.0666595 6.9017 0.0296628 6.81627 0.0119322C6.73083 -0.00579837 6.64217 -0.00374305 6.55775 0.0179248C6.47332 0.0395927 6.39562 0.0802381 6.33118 0.136434C6.26675 0.19263 6.21747 0.26273 6.1875 0.340824L4.6875 4.25632L3.04023 2.73899C2.98491 2.68798 2.91884 2.6487 2.84639 2.62373C2.77394 2.59876 2.69674 2.58866 2.61989 2.59411C2.54304 2.59956 2.46827 2.62043 2.40052 2.65535C2.33277 2.69026 2.27357 2.73843 2.22682 2.79668C0.75 4.63613 0 6.48661 0 8.29625C0 9.80898 0.632141 11.2598 1.75736 12.3294C2.88258 13.3991 4.4087 14 6 14C7.5913 14 9.11742 13.3991 10.2426 12.3294C11.3679 11.2598 12 9.80898 12 8.29625C12 4.44298 8.53705 1.2962 7.04864 0.119803ZM6 12.963C4.69847 12.9616 3.45066 12.4695 2.53034 11.5946C1.61002 10.7197 1.09235 9.53352 1.09091 8.29625C1.09091 6.87032 1.6425 5.39318 2.73136 3.89918L4.52932 5.55716C4.59461 5.61744 4.67474 5.66123 4.7624 5.68454C4.85006 5.70785 4.94246 5.70993 5.03118 5.6906C5.1199 5.67127 5.20212 5.63114 5.27035 5.57387C5.33858 5.5166 5.39065 5.44401 5.42182 5.36271L6.94023 1.40444C8.46886 2.72732 10.9091 5.30892 10.9091 8.29625C10.9076 9.53352 10.39 10.7197 9.46966 11.5946C8.54934 12.4695 7.30153 12.9616 6 12.963Z" fill="#FF7B3E"/>
</svg>
